<?xml version="1.0" encoding="UTF-8"?>
<svg width="50px" height="50px" viewBox="0 0 50 50" version="1.1" xmlns="http://www.w3.org/2000/svg" xmlns:xlink="http://www.w3.org/1999/xlink">
    <title>Bag</title>
    <defs>
        <linearGradient x1="50%" y1="-64.9708762%" x2="49.3022001%" y2="72.212566%" id="linearGradient-1">
            <stop stop-color="#525879" offset="0%"></stop>
            <stop stop-color="#17214C" offset="100%"></stop>
        </linearGradient>
        <linearGradient x1="50%" y1="-9.16979404%" x2="48.6622062%" y2="61.4317034%" id="linearGradient-2">
            <stop stop-color="#525879" offset="0%"></stop>
            <stop stop-color="#17214C" offset="100%"></stop>
        </linearGradient>
        <linearGradient x1="50%" y1="-64.9708762%" x2="50%" y2="57.8134918%" id="linearGradient-3">
            <stop stop-color="#525879" offset="0%"></stop>
            <stop stop-color="#111B44" offset="100%"></stop>
        </linearGradient>
        <linearGradient x1="48.9791091%" y1="20.6844487%" x2="48.9791091%" y2="104.348903%" id="linearGradient-4">
            <stop stop-color="#62698F" offset="0%"></stop>
            <stop stop-color="#111525" offset="100%"></stop>
        </linearGradient>
        <linearGradient x1="48.9791091%" y1="20.6844487%" x2="48.9791091%" y2="104.348903%" id="linearGradient-5">
            <stop stop-color="#62698F" offset="0%"></stop>
            <stop stop-color="#475078" offset="100%"></stop>
        </linearGradient>
        <linearGradient x1="48.9791091%" y1="20.6844487%" x2="48.9791091%" y2="104.348903%" id="linearGradient-6">
            <stop stop-color="#5B6187" offset="0%"></stop>
            <stop stop-color="#414A70" offset="100%"></stop>
        </linearGradient>
        <linearGradient x1="50%" y1="0%" x2="50%" y2="100%" id="linearGradient-7">
            <stop stop-color="#FFCB00" offset="0%"></stop>
            <stop stop-color="#FF7E00" offset="100%"></stop>
        </linearGradient>
        <linearGradient x1="50%" y1="0%" x2="50%" y2="100%" id="linearGradient-8">
            <stop stop-color="#FFD42C" offset="0%"></stop>
            <stop stop-color="#FF8F21" offset="100%"></stop>
        </linearGradient>
    </defs>
    <g id="Page-1" stroke="none" stroke-width="1" fill="none" fill-rule="evenodd">
        <g id="Iconspace_Education-Icon" transform="translate(-750.000000, -550.000000)">
            <g id="Bag" transform="translate(750.000000, 550.000000)">
                <polygon id="Shape" points="0 0 50 0 50 50 0 50"></polygon>
                <path d="M34,10 C34,8.8954305 33.1045695,8 32,8 L18,8 C16.8954305,8 16,8.8954305 16,10 L16,36 L34,36 L34,10 Z M18,4 L32,4 C35.3137085,4 38,6.6862915 38,10 L38,37 C38,38.6568542 36.6568542,40 35,40 L15,40 C13.3431458,40 12,38.6568542 12,37 L12,10 C12,6.6862915 14.6862915,4 18,4 Z" id="Shape" fill="url(#linearGradient-1)"></path>
                <path d="M3,13 L47,13 C47.5522847,13 48,13.4477153 48,14 L48,45 C48,45.5522847 47.5522847,46 47,46 L3,46 C2.44771525,46 2,45.5522847 2,45 L2,14 C2,13.4477153 2.44771525,13 3,13 Z" id="Shape" fill="url(#linearGradient-2)"></path>
                <path d="M26,13 L47,13 C47.5522847,13 48,13.4477153 48,14 L48,45 C48,45.5522847 47.5522847,46 47,46 L25,46 L25,14 C25,13.4477153 25.4477153,13 26,13 Z" id="Shape" fill="url(#linearGradient-3)"></path>
                <path d="M3,13 L47,13 C47.5522847,13 48,13.4477153 48,14 L48,26 C48,28.209139 46.209139,30 44,30 L6,30 C3.790861,30 2,28.209139 2,26 L2,14 C2,13.4477153 2.44771525,13 3,13 Z" id="Shape" fill="url(#linearGradient-4)"></path>
                <path d="M3,13 L47,13 C47.5522847,13 48,13.4477153 48,14 L48,24 C48,26.209139 46.209139,28 44,28 L6,28 C3.790861,28 2,26.209139 2,24 L2,14 C2,13.4477153 2.44771525,13 3,13 Z" id="Shape" fill="url(#linearGradient-5)"></path>
                <path d="M25,13 L47,13 C47.5522847,13 48,13.4477153 48,14 L48,24 C48,26.209139 46.209139,28 44,28 L25,28 L25,13 Z" id="Shape" fill="url(#linearGradient-6)"></path>
                <path d="M23,24 L27,24 C27.5522847,24 28,24.4477153 28,25 L28,31 C28,31.5522847 27.5522847,32 27,32 L23,32 C22.4477153,32 22,31.5522847 22,31 L22,25 C22,24.4477153 22.4477153,24 23,24 Z" id="Shape" fill="url(#linearGradient-7)"></path>
                <path d="M23,24 L25,24 L25,32 L23,32 C22.4477153,32 22,31.5522847 22,31 L22,25 C22,24.4477153 22.4477153,24 23,24 Z" id="Shape" fill="url(#linearGradient-8)"></path>
            </g>
        </g>
    </g>
</svg>